<svg width="16" height="16" viewBox="0 0 16 16" fill="none" xmlns="http://www.w3.org/2000/svg">
<path d="M9.02143 0.5C9.86518 0.50225 10.2934 0.50675 10.6632 0.51725L10.8087 0.5225C10.9767 0.5285 11.1424 0.536 11.3427 0.545C12.1407 0.5825 12.6852 0.7085 13.1629 0.89375C13.6579 1.08425 14.0749 1.34225 14.4919 1.7585C14.8733 2.13342 15.1684 2.58694 15.3567 3.0875C15.5419 3.56525 15.6679 4.10975 15.7054 4.9085C15.7144 5.108 15.7219 5.27375 15.7279 5.4425L15.7324 5.588C15.7437 5.957 15.7482 6.38525 15.7497 7.229L15.7504 7.7885V8.771C15.7523 9.31805 15.7465 9.86511 15.7332 10.412L15.7287 10.5575C15.7227 10.7262 15.7152 10.892 15.7062 11.0915C15.6687 11.8903 15.5412 12.434 15.3567 12.9125C15.1689 13.4133 14.8738 13.867 14.4919 14.2415C14.1169 14.6227 13.6634 14.9178 13.1629 15.1063C12.6852 15.2915 12.1407 15.4175 11.3427 15.455C11.1647 15.4634 10.9867 15.4709 10.8087 15.4775L10.6632 15.482C10.2934 15.4925 9.86518 15.4978 9.02143 15.4993L8.46193 15.5H7.48018C6.93288 15.5019 6.38558 15.4961 5.83843 15.4827L5.69293 15.4783C5.51489 15.4715 5.33689 15.4638 5.15893 15.455C4.36093 15.4175 3.81643 15.2915 3.33793 15.1063C2.83743 14.9183 2.3841 14.6231 2.00968 14.2415C1.62797 13.8667 1.3326 13.4132 1.14418 12.9125C0.958933 12.4347 0.832933 11.8903 0.795433 11.0915C0.787077 10.9135 0.779577 10.7355 0.772933 10.5575L0.769183 10.412C0.755362 9.86511 0.749111 9.31806 0.750433 8.771V7.229C0.74834 6.68195 0.75384 6.1349 0.766933 5.588L0.772183 5.4425C0.778183 5.27375 0.785683 5.108 0.794683 4.9085C0.832183 4.10975 0.958183 3.566 1.14343 3.0875C1.33177 2.58643 1.62772 2.13277 2.01043 1.7585C2.38475 1.37711 2.83779 1.08199 3.33793 0.89375C3.81643 0.7085 4.36018 0.5825 5.15893 0.545C5.35843 0.536 5.52493 0.5285 5.69293 0.5225L5.83843 0.518C6.38533 0.504675 6.93238 0.498924 7.47943 0.50075L9.02143 0.5ZM8.25043 4.25C7.25587 4.25 6.30204 4.64509 5.59878 5.34835C4.89552 6.05161 4.50043 7.00544 4.50043 8C4.50043 8.99456 4.89552 9.94839 5.59878 10.6517C6.30204 11.3549 7.25587 11.75 8.25043 11.75C9.24499 11.75 10.1988 11.3549 10.9021 10.6517C11.6053 9.94839 12.0004 8.99456 12.0004 8C12.0004 7.00544 11.6053 6.05161 10.9021 5.34835C10.1988 4.64509 9.24499 4.25 8.25043 4.25ZM8.25043 5.75C8.54591 5.74995 8.8385 5.8081 9.1115 5.92113C9.3845 6.03416 9.63257 6.19985 9.84153 6.40874C10.0505 6.61764 10.2163 6.86565 10.3294 7.13862C10.4425 7.41158 10.5008 7.70415 10.5008 7.99963C10.5009 8.2951 10.4427 8.58769 10.3297 8.86069C10.2167 9.13369 10.051 9.38176 9.84206 9.59072C9.63317 9.79969 9.38516 9.96547 9.11219 10.0786C8.83923 10.1917 8.54666 10.25 8.25118 10.25C7.65445 10.25 7.08215 10.0129 6.66019 9.59099C6.23824 9.16903 6.00118 8.59674 6.00118 8C6.00118 7.40326 6.23824 6.83097 6.66019 6.40901C7.08215 5.98705 7.65445 5.75 8.25118 5.75M12.1887 3.125C11.94 3.125 11.7016 3.22377 11.5258 3.39959C11.35 3.5754 11.2512 3.81386 11.2512 4.0625C11.2512 4.31114 11.35 4.5496 11.5258 4.72541C11.7016 4.90123 11.94 5 12.1887 5C12.4373 5 12.6758 4.90123 12.8516 4.72541C13.0274 4.5496 13.1262 4.31114 13.1262 4.0625C13.1262 3.81386 13.0274 3.5754 12.8516 3.39959C12.6758 3.22377 12.4373 3.125 12.1887 3.125Z" fill="#916CE7"/>
</svg>
